# xmcd CD database file
#
# Track frame offsets:
#	150
#	26926
#	42676
#	71102
#	85803
#	100653
#	126529
#	151430
#	167555
#	186005
#	207605
#	229805
#	254106
#	272032
#
# Disc length: 4034 seconds
#
# Revision: 0
# Processed by: cddbd v1.5.1PL0 Copyright (c) Steve Scherf et al.
# Submitted via: CDex 1.51
#
DISCID=d70fc00e
DTITLE=Eddie Higgins Trio - If Dreams Come True
DYEAR=2004
DGENRE=Jazz
TTITLE0=If Dreams Come True
TTITLE1=기억 속으로 (Into The Memory)
TTITLE2=It's All Right With Me
TTITLE3=Moon And Sand
TTITLE4=Minor Swing
TTITLE5=I Will Wait For You
TTITLE6=A Weekend In Havana
TTITLE7=Summertime
TTITLE8=St Louis Blues
TTITLE9=Shinjuku Twilight
TTITLE10=Frenesi
TTITLE11=Nightingale
TTITLE12=Caravan
TTITLE13=The Days Of Wine And Roses
EXTD=YEAR: 2004
EXTT0=
EXTT1=
EXTT2=
EXTT3=
EXTT4=
EXTT5=
EXTT6=
EXTT7=
EXTT8=
EXTT9=
EXTT10=
EXTT11=
EXTT12=
EXTT13=
PLAYORDER=
